# xmcd
#
# Track frame offsets:
#	150
#	21684
#	38868
#	55887
#	74011
#	93947
#	112564
#	129492
#	149356
#	168901
#	189014
#	205605
#	226979
#	244311
#	266813
#	282483
#	300743
#	316447
#	333430
#
# Disc length: 4699 seconds
#
# Revision: 4
# Processed by: cddbd v1.5.2PL0 Copyright (c) Steve Scherf et al.
# Submitted via: audiograbber 1.83.01
#
DISCID=15125913
DTITLE=Various Artist - Zoom-TP-80's-Disc 10
DYEAR=1900
DGENRE=Karaoke
TTITLE0=Ultravox - Vienna
TTITLE1=Wham! - Wake Me Up Before You Go Go
TTITLE2=Dire Straits - Walk Of Life
TTITLE3=Go West - We Close Our Eyes
TTITLE4=Jermaine Stewart - We Don't Have To Take Our Clothes Off
TTITLE5=Pet Shop Boys,The - West End Girls
TTITLE6=Howard Jones - What Is Love
TTITLE7=Billy Ocean - When The Going Gets Tough
TTITLE8=Paul Young - Wherever I Lay My Hat
TTITLE9=Duran Duran - Wild Boys
TTITLE10=Cliff Richard - Wired For Sound
TTITLE11=U2 - With Or Without You
TTITLE12=John Lennon - Woman
TTITLE13=Black - Wonderful Life
TTITLE14=Dead Or Alive - You Spin Me Round (Like A Record)
TTITLE15=Bee Gees,The - You Win Again
TTITLE16=Sonia - You'll Never Stop Me From Loving You
TTITLE17=The Bluebells,The - Young At Heart
TTITLE18=Fat Larry's Band - Zoom
EXTD=
EXTT0=
EXTT1=
EXTT2=
EXTT3=
EXTT4=
EXTT5=
EXTT6=
EXTT7=
EXTT8=
EXTT9=
EXTT10=
EXTT11=
EXTT12=
EXTT13=
EXTT14=
EXTT15=
EXTT16=
EXTT17=
EXTT18=
PLAYORDER=
